<svg width="3955" height="2149" viewBox="0 0 3955 2149" fill="none" xmlns="http://www.w3.org/2000/svg">
<path d="M584 1713L565 1732M574 1733L584 1723M584 1733L574 1743M574 1753L584 1743M584 1753L574 1763M574 1773L584 1763M584 1773L574 1783M574 1793L584 1783M584 1793L574 1803M574 1813L584 1803M584 1813L574 1823M574 1833L584 1823M584 1833L574 1843M574 1853L584 1843M585 1852L574 1863M575 1872L604 1843M604 1853L585 1872M595 1872L604 1863M604 1871L603 1872M604 1833L594 1843M594 1833L604 1823M604 1813L594 1823M594 1813L604 1803M604 1793L594 1803M594 1793L604 1783M604 1773L594 1783M594 1773L604 1763M604 1753L594 1763M594 1753L604 1743M604 1733L594 1743M594 1733L604 1723M604 1713L594 1723M594 1713L604 1703M604 1693L594 1703M594 1693L595 1692M614 1892L594 1912M585 1912L605 1892M595 1892L575 1912M565 1912L585 1892" stroke="black" stroke-width="3"/>
<path d="M855 1692L835 1712M845 1712L865 1692M875 1692L855 1712M865 1712L885 1692M895 1692L875 1712M885 1712L905 1692M915 1692L895 1712M905 1712L925 1692M935 1692L915 1712M925 1712L945 1692M954.5 1692.5L935 1712M945 1712L959.5 1697.5M964.5 1702.5L954 1713M954 1723L969.5 1707.5M974 1713L954 1733M954 1743L974 1723M974 1733L954 1753M954 1763L974 1743M974 1753L954 1773M954 1783L974 1763M974 1773L955 1792M965 1792L974 1783M974 1791L973 1792M954 1811L953 1812M945 1812L954 1803M954 1793L935 1812M925 1812L945 1792M935 1792L915 1812M905 1812L925 1792M915 1792L895 1812M885 1812L905 1792M895 1792L875 1812M874 1813L854 1833M854 1823L885 1792M875 1792L854 1813M854 1843L874 1823M874 1833L854.5 1852.5M859.5 1857.5L874 1843M874 1853L864.5 1862.5M869.5 1867.5L874 1863M874 1871L873.5 1871.5M875 1912L895 1892M905 1892L885 1912M895 1912L915 1892M924 1892L904 1912" stroke="black" stroke-width="3"/>
<path d="M1203 1892L1183 1912M1193 1912L1213 1892M1223 1892L1203 1912M1212 1912L1232 1892" stroke="black" stroke-width="3"/>
<path d="M1513 1852L1493 1872M1503 1872L1522 1853M1522 1863L1512 1873M1512 1883L1522 1873M1522 1883L1502 1903M1502 1912L1522 1892M1502 1893L1503 1892" stroke="black" stroke-width="3"/>
<path d="M1741 1732L1761 1712M1761 1722L1741 1742M1741 1752L1751 1742M1751 1752L1741 1762M1741 1772L1761 1752M1751 1772L1781 1742M1790 1732L1791 1731M1791 1722L1771 1742M1771 1732L1791 1712M1761 1731L1760 1732M1771 1762L1781 1752M1791 1752L1771 1772M1781 1772L1801 1752" stroke="black" stroke-width="3"/>
<path d="M2210 1752L2190 1772M2190 1762L2210 1742M2210 1732L2200 1742M2200 1732L2210 1722M2210 1712L2190 1732M2200 1712L2170 1742M2161 1752L2160 1753M2160 1762L2180 1742M2180 1752L2160 1772M2190 1753L2191 1752M2180 1722L2170 1732M2160 1732L2180 1712M2170 1712L2150 1732" stroke="black" stroke-width="3"/>
<path d="M565.5 1443L584.5 1424M584.5 1434L574.5 1444M574.5 1454L584.5 1444M584.5 1454L574.5 1464M574.5 1474L584.5 1464M584.5 1474L574.5 1484M574.5 1494L584.5 1484M584.5 1494L574.5 1504M574.5 1514L584.5 1504M584.5 1514L574.5 1524M574.5 1534L584.5 1524M584.5 1534L574.5 1544M574.5 1554L584.5 1544M584.5 1554L574.5 1564M574.5 1574L584.5 1564M584.5 1574L574.5 1584M574.5 1594L584.5 1584M584.5 1594L574.5 1604M574.5 1614L584.5 1604M584.5 1614L560 1638.5M555 1633.5L565.5 1623M555.5 1623L550 1628.5M545 1623.5L545.5 1623M565.5 1643L585.5 1623M575.5 1643L604.5 1614M605.5 1623L585.5 1643M595.5 1643L615 1623.5M620 1628.5L605.5 1643M615.5 1643L625 1633.5M630 1638.5L625.5 1643M633.5 1643L634 1642.5M604.5 1604L594.5 1614M594.5 1604L604.5 1594M604.5 1584L594.5 1594M594.5 1584L604.5 1574M604.5 1564L594.5 1574M594.5 1564L604.5 1554M604.5 1544L594.5 1554M594.5 1544L604.5 1534M604.5 1524L594.5 1534M594.5 1524L604.5 1514M604.5 1504L594.5 1514M594.5 1504L604.5 1494M604.5 1484L594.5 1494M594.5 1484L604.5 1474M604.5 1464L594.5 1474M594.5 1464L604.5 1454M604.5 1444L594.5 1454M594.5 1444L604.5 1434M604.5 1424L594.5 1434M594.5 1424L604.5 1414M604.5 1404L594.5 1414M594.5 1404L595.5 1403" stroke="black" stroke-width="3"/>
<path d="M817 1402L797 1422M807 1422L827 1402M837 1402L817 1422M827 1422L847 1402M857 1402L837 1422M847 1422L867 1402M877 1402L857 1422M867 1422L887 1402M897 1402L877 1422M887 1422L902 1407M907 1412L897 1422M897 1432L912 1417M917 1422L897 1442M897 1452L917 1432M917 1442L877 1482M877 1472L887 1462M877.5 1462L877 1462.5M907 1462L917 1452M917 1461L916 1462M897 1472L877 1492M897 1482L857 1522M857 1512L867 1502M858 1502L857 1503M887 1502L897 1492M897 1501L896 1502M877 1512L857 1532M877 1522L837 1562M837 1552L847 1542M838 1542L837 1543M867 1542L877 1532M877 1541L876 1542M857 1552L837 1572M847 1582L857 1572M856 1582L857 1581M857 1562L817 1602M817 1592L827 1582M818 1582L817 1583M817 1612L837 1592M837 1602L817 1622M822 1627L837 1612M837 1622L827 1632M832 1637L847 1622M857 1622L837 1642M847 1642L867 1622M877 1622L857 1642M867 1642L887 1622M897 1622L877 1642M887 1642L907 1622M917 1622L897 1642M907 1642L927 1622M937 1622L917 1642M927 1642L947 1622M952 1627L937 1642M947 1642L957 1632M962 1637L957 1642M966 1642L966.5 1641.5" stroke="black" stroke-width="3"/>
<path d="M1156 1402L1136 1422M1146 1422L1166 1402M1176 1402L1156 1422M1166 1422L1186 1402M1196 1402L1176 1422M1186 1422L1206 1402M1216 1402L1196 1422M1206 1422L1226 1402M1236 1402L1216 1422M1226 1422L1246 1402M1256 1402L1236 1422M1246 1422L1261 1407M1266 1412L1256 1422M1256 1432L1271 1417M1276 1422L1256 1442M1256 1452L1276 1432M1276 1442L1256 1462M1256 1472L1276 1452M1276 1462L1256 1482M1256 1492L1276 1472M1276 1482L1236 1522M1246 1522L1256 1512M1256 1521L1255 1522M1256 1523L1257 1522M1266 1522L1256 1532M1256 1542L1276 1522M1276 1532L1256 1552M1256 1562L1276 1542M1276 1552L1266 1562M1275 1562L1276 1561M1277 1562L1276 1563M1276 1572L1286 1562M1296 1562L1276 1582M1276 1592L1296 1572M1296 1582L1276 1602M1276 1612L1296 1592M1296 1602L1256 1642M1266 1642L1296 1612M1296 1622L1276 1642M1246 1642L1266 1622M1256 1622L1236 1642M1226 1642L1246 1622M1236 1622L1216 1642M1206 1642L1226 1622M1216 1622L1196 1642M1186 1642L1206 1622M1196 1622L1176 1642M1166 1642L1186 1622M1176 1622L1156 1642M1146 1642L1166 1622M1156 1622L1136 1642M1126 1642L1146 1622M1136 1622L1116 1642M1106 1642L1126 1622M1156 1522L1176 1502M1186 1502L1166 1522M1176 1522L1196 1502M1206 1502L1186 1522M1196 1522L1216 1502M1226 1502L1206 1522M1216 1522L1236 1502M1246 1502L1226 1522M1266 1502L1276 1492M1276 1501L1275 1502" stroke="black" stroke-width="3"/>
<path d="M2063 1424L2044 1443M2053 1444L2063 1434M2073 1424L2094 1403M2104 1403L2073 1434M2063 1444L2053 1454M2053 1464L2063 1454M2073 1444L2083 1434M2094 1423L2114 1403M2124 1403L2104 1423M2083 1444L2073 1454M2063 1464L2053 1474M2053 1484L2063 1474M2073 1464L2083 1454M2114 1423L2134 1403M2144 1403L2124 1423M2083 1464L2073 1474M2063 1484L2053 1494M2053 1504L2063 1494M2073 1484L2083 1474M2134 1423L2154 1403M2164 1403L2144 1423M2154 1423L2174 1403M2183.5 1403.5L2164 1423M2174 1423L2188.5 1408.5M2193.5 1413.5L2184 1423M2194 1423L2198.5 1418.5M2202.5 1422.5L2202 1423M2084 1403L2073 1414M2074 1403L2073 1404M2053 1514L2063 1504M2073 1494L2083 1484M2083 1494L2073 1504M2063 1514L2053 1524M2053 1534L2063 1524M2073 1514L2083 1504M2083 1514L2073 1524M2063 1534L2053 1544M2053 1554L2063 1544M2073 1534L2083 1524M2083 1534L2073 1544M2063 1554L2053 1564M2053 1574L2063 1564M2073 1554L2083 1544M2083 1554L2073 1564M2063 1574L2053 1584M2053 1594L2063 1584M2073 1574L2083 1564M2083 1574L2073 1584M2063 1594L2053 1604M2053 1614L2063 1604M2073 1594L2083 1584M2083 1594L2073 1604M2063 1614L2053.5 1623.5M2058.5 1628.5L2064 1623M2073 1614L2083 1604M2083 1614L2063.5 1633.5M2068.5 1638.5L2084 1623M2094 1623L2074 1643M2084 1643L2104 1623M2114 1623L2094 1643M2104 1643L2124 1623M2134 1623L2114 1643M2124 1643L2144 1623M2154 1623L2134 1643M2144 1643L2164 1623M2174 1623L2154 1643M2164 1643L2184 1623M2194 1623L2174 1643M2184 1643L2223 1604M2223 1614L2194 1643M2203 1643L2223 1623M2223 1594L2203 1614M2203 1604L2223 1584M2223 1574L2203 1594M2203 1584L2223 1564M2214 1563L2203 1574M2203 1564L2204 1563M2203 1554L2194 1563M2184 1563L2203 1544M2203 1534L2183 1554M2183 1544L2203 1524M2194 1523L2183 1534M2183 1524L2184 1523M2183 1514L2174 1523M2164 1523L2183 1504M2174 1503L2154 1523M2144 1523L2164 1503M2154 1503L2134 1523M2124 1523L2144 1503M2134 1503L2114 1523M2104 1523L2124 1503M2114 1503L2094 1523M2084 1523L2104 1503" stroke="black" stroke-width="3"/>
<path d="M1425 1404L1405 1424M1405 1434L1425 1414M1425 1424L1405 1444M1405 1454L1425 1434M1425 1444L1405 1464M1405 1474L1425 1454M1425 1464L1405 1484M1405 1494L1425 1474M1425 1484L1405.5 1503.5M1410.5 1508.5L1425 1494M1426 1503L1415.5 1513.5M1420.5 1518.5L1436 1503M1446 1503L1426 1523M1436 1523L1456 1503M1466 1503L1446 1523M1456 1523L1476 1503M1486 1503L1466 1523M1476 1523L1496 1503M1506 1503L1486 1523M1496 1523L1516 1503M1526 1503L1506 1523M1516 1523L1536 1503M1526 1523L1556 1493M1556 1503L1536 1523M1545 1524L1556 1513M1556 1523L1545 1534M1545 1544L1556 1533M1556 1543L1545 1554M1545 1564L1556 1553M1556 1563L1545 1574M1545 1584L1556 1573M1556 1583L1545 1594M1545 1604L1556 1593M1556 1603L1545 1614M1556 1613L1526 1643M1536 1643L1556 1623M1546 1643L1574 1615M1576 1623L1556 1643M1565 1643L1585 1623M1574 1605L1565 1614M1565 1604L1574 1595M1574 1585L1565 1594M1565 1584L1574 1575M1574 1565L1565 1574M1565 1564L1574 1555M1574 1545L1565 1554M1565 1544L1574 1535M1574 1525L1565 1534M1565 1524L1574 1515M1574 1505L1565 1514M1565 1504L1574 1495M1574 1485L1565 1494M1565 1484L1574 1475M1574 1465L1565 1474M1565 1464L1574 1455M1574 1445L1565 1454M1565 1444L1575.5 1433.5M1570.5 1428.5L1565 1434M1565 1424L1565.5 1423.5M1580.5 1438.5L1576 1443M1584 1443L1584.5 1442.5M1546 1403L1545 1404M1545 1414L1556 1403M1556 1413L1545 1424M1545 1434L1556 1423M1556 1433L1545 1444M1545 1454L1556 1443M1556 1453L1545 1464M1545 1474L1556 1463M1556 1473L1545 1484M1545 1494L1556 1483" stroke="black" stroke-width="3"/>
<path d="M1775 1403L1754 1424M1754 1434L1785 1403M1795 1403L1754 1444M1754 1454L1774 1434M1774 1444L1754 1464M1754 1474L1774 1454M1774 1464L1754 1484M1754 1494L1774 1474M1774 1484L1754.5 1503.5M1759.5 1508.5L1774 1494M1775 1503L1764.5 1513.5M1769.5 1518.5L1785 1503M1795 1503L1775 1523M1785 1523L1805 1503M1815 1503L1795 1523M1805 1523L1825 1503M1835 1503L1815 1523M1825 1523L1845 1503M1855 1503L1835 1523M1845 1523L1865 1503M1874 1504L1855 1523M1865 1523L1874 1514M1875 1523L1874 1524M1874 1534L1885 1523M1894 1524L1874 1544M1874 1554L1894 1534M1894 1544L1875 1563M1885 1563L1894 1554M1895 1563L1894 1564M1894 1574L1905 1563M1914 1564L1894 1584M1894 1594L1914 1574M1914 1584L1894 1604M1894 1614L1914 1594M1914 1604L1875 1643M1885 1643L1914 1614M1914 1623L1894 1643M1865 1643L1885 1623M1875 1623L1855 1643M1845 1643L1865 1623M1855 1623L1835 1643M1825 1643L1845 1623M1835 1623L1815 1643M1805 1643L1825 1623M1815 1623L1795 1643M1785 1643L1805 1623M1795 1623L1775 1643M1765 1643L1785 1623M1775 1623L1755 1643M1745 1643L1765 1623M1755 1623L1735 1643M1725 1643L1745 1623M1805 1403L1785 1423M1795 1423L1815 1403M1825 1403L1805 1423M1815 1423L1835 1403M1845 1403L1825 1423M1835 1423L1855 1403M1865 1403L1845 1423M1855 1423L1874.5 1403.5M1879.5 1408.5L1865 1423M1875 1423L1884.5 1413.5M1889.5 1418.5L1885 1423M1893 1423L1893.5 1422.5" stroke="black" stroke-width="3"/>
<path d="M2343 1423L2363 1403M2373 1403L2353 1423M2363 1423L2383 1403M2393 1403L2373 1423M2383 1423L2403 1403M2413 1403L2393 1423M2403 1423L2423 1403M2433 1403L2413 1423M2423 1423L2443 1403M2453 1403L2433 1423M2443 1423L2463 1403M2473 1403L2453 1423M2463 1423L2482 1404M2482 1414L2472 1424M2472 1434L2482 1424M2472 1444L2482 1434M2492 1424L2492.5 1423.5M2497.5 1428.5L2492 1434M2472 1454L2482 1444M2472 1464L2482 1454M2502.5 1433.5L2492 1444M2507.5 1438.5L2503 1443M2502 1444L2492 1454M2482 1464L2472 1474M2472 1484L2482 1474M2492 1464L2502 1454M2502 1464L2492 1474M2482 1484L2472 1494M2472 1504L2482 1494M2492 1484L2502 1474M2502 1484L2492 1494M2482 1504L2472 1514M2472 1524L2482 1514M2492 1504L2502 1494M2502 1504L2492 1514M2482 1524L2472 1534M2472 1544L2482 1534M2492 1524L2502 1514M2502 1524L2492 1534M2482 1544L2472 1554M2472 1564L2482 1554M2492 1544L2502 1534M2502 1544L2492 1554M2482 1564L2472 1574M2472 1584L2482 1574M2492 1564L2502 1554M2502 1564L2492 1574M2482 1584L2472 1594M2472.5 1603.5L2482 1594M2492 1584L2502 1574M2502 1584L2492 1594M2483 1603L2477.5 1608.5M2482.5 1613.5L2502 1594M2502 1604L2487.5 1618.5M2492 1624L2502 1614M2502 1624L2492 1634M2493 1643L2502 1634M2502 1642L2501 1643M2510 1443L2510.5 1442.5" stroke="black" stroke-width="3"/>
<path d="M2691 1404L2692 1403M2702 1403L2691 1414M2681 1424L2662 1443M2671 1444L2681 1434M2691 1424L2712 1403M2722 1403L2702 1423M2701 1424L2691 1434M2681 1444L2671 1454M2671 1464L2681 1454M2691 1444L2701 1434M2712 1423L2732 1403M2742 1403L2722 1423M2701 1444L2691 1454M2681 1464L2671 1474M2671 1484L2681 1474M2691 1464L2701 1454M2701 1464L2691 1474M2681 1484L2671 1494M2671 1504L2681 1494M2691 1484L2701 1474M2701 1484L2691 1494M2681 1504L2671 1514M2671 1524L2681 1514M2691 1504L2701 1494M2701 1504L2691 1514M2681 1524L2671 1534M2671 1544L2681 1534M2691 1524L2701 1514M2722 1503L2691 1534M2681 1544L2671 1554M2671 1564L2681 1554M2691 1544L2701 1534M2701 1544L2691 1554M2681 1564L2671 1574M2671 1584L2681 1574M2691 1564L2701 1554M2701 1564L2691 1574M2681 1584L2671 1594M2671 1604L2681 1594M2691 1584L2701 1574M2701 1584L2691 1594M2681 1604L2671 1614M2671.5 1623.5L2681 1614M2691 1604L2701 1594M2701 1604L2691 1614M2682 1623L2676.5 1628.5M2681.5 1633.5L2701 1614M2702 1623L2686.5 1638.5M2692 1643L2712 1623M2722 1623L2702 1643M2712 1643L2732 1623M2742 1623L2722 1643M2732 1643L2752 1623M2762 1623L2742 1643M2752 1643L2772 1623M2782 1623L2762 1643M2772 1643L2792 1623M2801 1614L2821 1594M2821 1604L2782 1643M2792 1643L2821 1614M2821 1623L2801 1643M2801 1604L2821 1584M2821 1574L2801 1594M2801 1584L2821 1564M2821 1554L2801 1574M2801 1564L2821 1544M2821 1534L2801 1554M2801 1544L2821 1524M2812 1523L2801 1534M2801 1524L2802 1523M2792 1523L2801 1514M2812 1503L2821 1494M2821 1502L2820 1503M2821 1484L2802 1503M2801 1504L2782 1523M2772 1523L2792 1503M2801 1494L2821 1474M2821 1464L2801 1484M2782 1503L2762 1523M2752 1523L2772 1503M2801 1474L2821 1454M2821 1444L2801 1464M2801 1454L2821 1434M2821 1424L2801 1444M2801 1434L2816.5 1418.5M2811.5 1413.5L2801 1424M2792 1423L2806.5 1408.5M2801.5 1403.5L2782 1423M2772 1423L2792 1403M2782 1403L2762 1423M2752 1423L2772 1403M2762 1403L2742 1423M2732 1423L2752 1403M2732 1503L2712 1523M2722 1523L2742 1503M2752 1503L2732 1523M2742 1523L2762 1503" stroke="black" stroke-width="3"/>
<path d="M2971 1403L2950 1424M2950 1434L2981 1403M2991 1403L2971 1423M2970 1424L2950 1444M2950 1454L2970 1434M2970 1444L2950 1464M2950 1474L2970 1454M2970 1464L2950 1484M2950 1494L2970 1474M2970 1484L2950.5 1503.5M2955.5 1508.5L2970 1494M2971 1503L2960.5 1513.5M2965.5 1518.5L2981 1503M2991 1503L2971 1523M2981 1523L3001 1503M3011 1503L2991 1523M3001 1523L3021 1503M3031 1503L3011 1523M3021 1523L3041 1503M3051 1503L3031 1523M3041 1523L3061 1503M3071 1503L3051 1523M3061 1523L3081 1503M3071 1523L3101 1493M3110 1484L3119 1475M3119 1465L3110 1474M3101 1483L3090 1494M3090 1484L3101 1473M3110 1464L3119 1455M3129 1443L3129.5 1442.5M3125.5 1438.5L3121 1443M3119 1445L3110 1454M3101 1463L3090 1474M3090 1464L3101 1453M3110 1444L3120.5 1433.5M3115.5 1428.5L3110 1434M3101 1443L3090 1454M3090 1444L3101 1433M3110 1424L3110.5 1423.5M3101 1423L3090 1434M3090 1424L3101 1413M3101 1403L3081 1423M3071 1423L3091 1403M3081 1403L3061 1423M3051 1423L3071 1403M3061 1403L3041 1423M3031 1423L3051 1403M3041 1403L3021 1423M3011 1423L3031 1403M3021 1403L3001 1423M2991 1423L3011 1403M3001 1403L2981 1423M3081 1523L3101 1503M3110 1494L3119 1485M3119 1495L3110 1504M3101 1513L3090 1524M3090 1534L3101 1523M3110 1514L3119 1505M3119 1515L3110 1524M3101 1533L3090 1544M3090 1554L3101 1543M3110 1534L3119 1525M3119 1535L3110 1544M3101 1553L3090 1564M3090 1574L3101 1563M3110 1554L3119 1545M3119 1555L3110 1564M3101 1573L3090 1584M3090 1594L3101 1583M3110 1574L3119 1565M3119 1575L3110 1584M3101 1593L3090 1604M3090 1614L3101 1603M3110 1594L3119 1585M3119 1595L3110 1604M3101 1613L3071 1643M3081 1643L3101 1623M3110 1614L3119 1605M3119 1615L3091 1643M3101 1643L3119 1623M3081 1623L3061 1643M3051 1643L3071 1623M3061 1623L3041 1643M3031 1643L3051 1623M3041 1623L3021 1643M3011 1643L3031 1623M3021 1623L3001 1643M2991 1643L3011 1623M3001 1623L2981 1643M2971 1643L2991 1623M2981 1623L2961 1643M2951 1643L2971 1623" stroke="black" stroke-width="3"/>
<path d="M3310 1403L3309 1404M3280 1443L3299 1424M3309 1414L3320 1403M3330 1403L3309 1424M3299 1434L3289 1444M3289 1454L3299 1444M3309 1434L3319 1424M3320 1423L3340 1403M3350 1403L3330 1423M3319 1434L3309 1444M3299 1454L3289 1464M3289 1474L3299 1464M3309 1454L3319 1444M3319 1454L3309 1464M3299 1474L3289 1484M3289 1494L3299 1484M3309 1474L3319 1464M3319 1474L3309 1484M3299 1494L3289 1504M3289 1514L3299 1504M3309 1494L3319 1484M3319 1494L3309 1504M3299 1514L3289 1524M3289 1534L3299 1524M3309 1514L3319 1504M3319 1514L3309 1524M3299 1534L3289 1544M3289 1554L3299 1544M3309 1534L3319 1524M3319 1534L3309 1544M3299 1554L3289 1564M3289 1574L3299 1564M3309 1554L3319 1544M3319 1554L3309 1564M3299 1574L3289 1584M3289 1594L3299 1584M3309 1574L3319 1564M3319 1574L3309 1584M3299 1594L3289 1604M3289 1614L3299 1604M3309 1594L3319 1584M3319 1594L3309 1604M3299 1614L3289.5 1623.5M3294.5 1628.5L3300 1623M3309 1614L3319 1604M3319 1614L3299.5 1633.5M3304.5 1638.5L3320 1623M3330 1623L3310 1643M3320 1643L3340 1623M3350 1623L3330 1643M3340 1643L3360 1623M3370 1623L3350 1643M3360 1643L3380 1623M3390 1623L3370 1643M3380 1643L3400 1623M3410 1623L3390 1643M3400 1643L3459 1584M3459 1594L3410 1643M3420 1643L3459 1604M3459 1614L3430 1643M3440 1643L3459 1624M3459 1574L3419 1614M3419 1604L3459 1564M3459 1554L3439 1574M3430 1583L3419 1594M3419 1584L3420 1583M3439 1564L3459 1544M3459 1534L3439 1554M3419 1574L3410 1583M3400 1583L3419 1564M3439 1544L3459 1524M3459 1514L3439 1534M3419 1554L3399 1574M3399 1564L3419 1544M3439 1524L3459 1504M3459 1494L3439 1514M3410 1543L3399 1554M3399 1544L3400 1543M3399 1534L3390 1543M3380 1543L3399 1524M3399 1514L3379 1534M3379 1524L3399 1504M3390 1503L3379 1514M3379 1504L3380 1503M3439 1504L3459 1484M3459 1474L3439 1494M3439 1484L3459 1464M3459 1454L3439 1474M3439 1464L3459 1444M3459 1434L3439 1454M3439 1444L3459 1424M3454.5 1418.5L3439 1434M3379 1494L3370 1503M3360 1503L3379 1484M3439 1424L3449.5 1413.5M3444.5 1408.5L3430 1423M3379 1474L3359 1494M3359 1484L3379 1464M3420 1423L3439.5 1403.5M3430 1403L3410 1423M3370 1463L3359 1474M3359 1464L3360 1463M3400 1423L3420 1403M3410 1403L3390 1423M3359 1454L3350 1463M3340 1463L3359 1444M3380 1423L3400 1403M3390 1403L3370 1423M3359 1434L3339 1454M3339 1444L3359 1424M3360 1423L3380 1403M3370 1403L3339 1434M3339 1424L3360 1403" stroke="black" stroke-width="3"/>
<path d="M537 907L536 908M546 908L536 918M526 928L507 947M516 948L526 938M536 928L546 918M546 928L536 938M526 948L516 958M516 968L526 958M536 948L546 938M546 948L536 958M526 968L516 978M516 988L526 978M536 968L546 958M546 968L536 978M526 988L516 998M516 1008L526 998M536 988L546 978M546 988L536 998M526 1008L516 1018M516 1028L526 1018M536 1008L546 998M546 1008L536 1018M526 1028L516 1038M516 1048L526 1038M536 1028L546 1018M546 1028L536 1038M526 1048L516 1058M516 1068L526 1058M536 1048L546 1038M546 1048L536 1058M526 1068L516 1078M516 1088L526 1078M536 1068L546 1058M546 1068L536 1078M526 1088L516 1098M516 1108L526 1098M536 1088L546 1078M546 1088L536 1098M526 1108L516 1118M497 1147L526 1118M536 1108L546 1098M546 1108L536 1118M527 1127L507 1147M517 1147L546 1118M547 1127L527 1147M537 1147L557 1127M567 1127L547 1147M557 1147L577 1127M587 1127L567 1147M577 1147L597 1127M607 1127L587 1147M597 1147L617 1127M627 1127L607 1147M617 1147L637 1127M647 1127L627 1147M637 1147L676 1108M676 1118L647 1147M656 1147L676 1127M676 1098L656 1118M656 1108L676 1088M676 1078L656 1098M656 1088L676 1068M676 1058L656 1078M656 1068L676 1048M676 1038L656 1058M656 1048L676 1028M676 1018L656 1038M656 1028L676 1008M676 998L656 1018M656 1008L676 988M676 978L656 998M656 988L676 968M676 958L656 978M656 968L676 948M676 938L656 958M656 948L676 928M671.5 922.5L656 938M656 928L666.5 917.5M661.5 912.5L656 918M656 908L656.5 907.5" stroke="black" stroke-width="3"/>
<path d="M849 907L848 908M819 947L838 928M848 918L858 908M858 918L848 928M838 938L828 948M828 958L838 948M848 938L858 928M858 938L848 948M838 958L828 968M828 978L838 968M848 958L858 948M858 958L848 968M838 978L828 988M828 998L838 988M848 978L858 968M858 978L848 988M838 998L828 1008M828 1018L838 1008M848 998L858 988M858 998L848 1008M838 1018L828 1028M828 1038L838 1028M848 1018L858 1008M858 1018L848 1028M838 1038L828 1048M828 1058L838 1048M848 1038L858 1028M858 1038L848 1048M838 1058L828 1068M828 1078L838 1068M848 1058L858 1048M858 1058L848 1068M838 1078L828 1088M828 1098L838 1088M848 1078L858 1068M858 1078L848 1088M838 1098L828 1108M828 1118L838 1108M848 1098L858 1088M858 1098L848 1108M838 1118L809 1147M819 1147L839 1127M848 1118L859 1107M869 1107L829 1147M839 1147L878 1108M879 1107L898 1088M898 1098L889 1107M878 1118L849 1147M858 1147L878 1127M897 1107L898 1106M898 1078L878 1098M878 1088L898 1068M889 1067L878 1078M878 1068L879 1067M898 1028L899 1027M909 1027L898 1038M898 1048L918 1028M918 1038L898 1058M899 1067L918 1048M918 1058L909 1067M917 1067L918 1066M937 1027L938 1026M938 1018L929 1027M919 1027L938 1008M938 998L918 1018M918 1008L938 988M939 987L958 968M958 978L949 987M957 987L958 986M929 987L918 998M918 988L919 987M938 978L958 958M958 948L938 968M938 958L949 947M939 947L938 948M959 947L978 928M969 947L978 938M977 947L978 946M973.5 922.5L958 938M958 928L968.5 917.5M963.5 912.5L958 918M958 908L958.5 907.5" stroke="black" stroke-width="3"/>
<path d="M1148 908L1147 909M1118 948L1137 929M1147 919L1157 909M1157 919L1147 929M1137 939L1127 949M1127 959L1137 949M1147 939L1157 929M1157 939L1147 949M1137 959L1127 969M1127 979L1137 969M1147 959L1157 949M1157 959L1147 969M1137 979L1127 989M1127 999L1137 989M1147 979L1157 969M1157 979L1147 989M1137 999L1127 1009M1127 1019L1137 1009M1147 999L1157 989M1157 999L1147 1009M1137 1019L1127 1028.5M1127 1039L1137 1029M1147 1019L1157 1009M1157 1019L1147 1029M1137 1039L1127 1049M1127 1059L1137 1049M1147 1039L1157 1029M1157 1039L1147 1049M1127 1079L1137 1069M1147 1059L1157 1049M1157 1059L1147 1069M1137 1079L1127 1089M1127 1099L1137 1089M1147 1079L1157 1069M1157 1079L1147 1089M1137 1099L1127 1109M1127 1119L1137 1109M1147 1099L1157 1089M1157 1099L1147 1109M1137 1119L1108 1148M1118 1148L1138 1128M1147 1119L1157 1109M1167 1109L1128 1148M1138 1148L1197 1089M1197 1099L1187 1109M1177 1119L1148 1148M1157 1148L1177 1128M1196 1109L1197 1108M1177 1099L1197 1079M1208 1068L1217 1059M1217 1049L1198 1068M1197 1069L1177 1089M1177 1079L1188 1068M1197 1059L1217 1039M1177 1069L1178 1068M1197 1049L1237 1009M1237 999L1217 1019M1207 1029L1197 1039M1197 1030L1198 1029M1217 1009L1237 989M1237 979L1217 999M1217 989L1237 969M1232.5 963.5L1217 979M1217 969L1227.5 958.5M1222.5 953.5L1217 959M1217 950L1217.5 949.5M1237 1019L1227 1029M1236 1029L1237 1028M1238 1029L1237 1030M1237 1039L1247 1029M1257 1029L1237 1049M1237 1059L1257 1039M1257 1049L1238 1068M1248 1068L1257 1059M1257 1067L1256 1068M1257 1069L1258 1068M1257 1079L1268 1068M1277 1059L1297 1039M1297 1049L1258 1088M1268 1088L1297 1059M1297 1069L1277 1089M1277 1099L1297 1079M1297 1089L1277 1109M1277 1049L1297 1029M1297 1019L1277 1039M1277 1029L1297 1009M1297 999L1277 1019M1277 1009L1297 989M1297 979L1277 999M1277 989L1297 969M1297 959L1277 979M1277 969L1297 949M1297 939L1277 959M1277 949L1297 929M1292.5 923.5L1277 939M1277 929L1287.5 918.5M1282.5 913.5L1277 919M1277 909L1277.5 908.5M1137 1059L1127 1069" stroke="black" stroke-width="3"/>
<path d="M1406.5 908.5L1407 908M1417 908L1411.5 913.5M1416.5 918.5L1427 908M1437 908L1421.5 923.5M1427 928L1447 908M1457 908L1437 928M1446 929L1466 909M1466 919L1446 939M1447 948L1466 929M1466 939L1457 948M1466 949L1467 948M1477 948L1466 959M1466 969L1486 949M1486 959L1466 979M1467 988L1486 969M1506 949L1507 948M1517 948L1506 959M1486 979L1477 988M1486 989L1487 988M1506 969L1526 949M1526 959L1506 979M1497 988L1486 999M1486 1009L1506 989M1507 988L1526 969M1526 979L1517 988M1506 999L1486 1019M1477 1028L1466 1039M1466 1029L1467 1028M1466 1049L1486 1029M1487 1028L1506 1009M1506 1019L1497 1028M1486 1039L1466 1059M1457 1068L1437 1088M1447 1088L1466 1069M1466 1079L1457 1088M1465 1088L1466 1087M1426 1147L1425.5 1147.5M1421.5 1143.5L1426 1139M1426 1129L1416.5 1138.5M1411.5 1133.5L1426 1119M1426 1109L1406.5 1128.5M1406 1119L1426 1099M1426 1089L1406 1109M1406 1099L1417 1088M1406 1089L1407 1088M1427 1088L1447 1068M1437 1068L1426 1079M1426 1069L1427 1068M1467 1068L1486 1049M1486 1059L1477 1068M1485 1068L1486 1067M1505 1028L1506 1027M1525 988L1526 987M1526 929L1527 928M1537 928L1526 939M1527 948L1547 928M1557 928L1537 948M1547 948L1566 929M1566 939L1557 948M1565 948L1566 947M1566 909L1567 908M1577 908L1566 919M1567 928L1586.5 908.5M1591.5 913.5L1577 928M1587 928L1596.5 918.5M1601.5 923.5L1597 928M1605 928L1605.5 927.5M1507 1028L1506 1029M1506 1039L1517 1028M1526 1029L1506 1049M1506 1059L1526 1039M1526 1049L1507 1068M1517 1068L1526 1059M1526 1067L1525 1068M1526 1069L1527 1068M1537 1068L1526 1079M1526 1089L1546 1069M1546 1079L1526 1099M1527 1108L1546 1089M1546 1099L1537 1108M1545 1108L1545.5 1107M1547 1108L1546.5 1109M1546 1119L1557 1108M1566 1109L1547 1128M1557 1128L1566 1119M1566 1127L1565 1128M1566 1129L1567 1128M1577 1128L1566 1139M1567 1148L1587 1128M1597 1128L1577 1148M1586 1148L1606 1128" stroke="black" stroke-width="3"/>
<path d="M1765 908L1766 907M1775 908L1765 918M1755 928L1736 947M1745 948L1755 938M1765 928L1775 918M1775 928L1765 938M1755 948L1745 958M1745 968L1755 958M1765 948L1775 938M1775 948L1765 958M1755 968L1745 978M1745 988L1755 978M1765 968L1775 958M1775 968L1765 978M1755 988L1745 998M1726 1027L1755 998M1765 988L1775 978M1775 988L1765 998M1756 1007L1736 1027M1746 1027L1775 998M1776 1007L1756 1027M1766 1027L1786 1007M1796 1007L1776 1027M1786 1027L1806 1007M1816 1007L1796 1027M1806 1027L1826 1007M1836 1007L1816 1027M1826 1027L1846 1007M1856 1007L1836 1027M1846 1027L1866 1007M1876 1007L1856 1027M1866 1027L1886 1007M1895 998L1915 978M1915 988L1875 1028M1875 1038L1915 998M1915 1007L1875 1047L1855 1067M1855 1058L1866 1047M1856 1047L1855 1048M1886 1047L1895 1038M1895 1046L1894 1047M1875 1058L1855 1078M1846 1087L1835 1098M1835 1108L1855 1088M1856 1087L1875 1068M1875 1078L1866 1087M1855 1098L1835 1118M1836 1127L1855 1108M1874 1087L1875 1086M1855 1118L1846 1127M1854 1127L1855 1126M1836 1087L1835 1088M1756 1127L1736 1147M1746 1147L1766 1127M1776 1127L1756 1147M1766 1147L1786 1127M1796 1127L1776 1147M1786 1147L1806 1127M1816 1127L1796 1147M1806 1147L1826 1127M1835 1128L1816 1147M1826 1147L1835 1138M1835 1146L1834 1147M1895 988L1915 968M1915 958L1895 978M1895 968L1915 948M1915 938L1895 958M1895 948L1915 928M1910.5 922.5L1895 938M1895 928L1905.5 917.5M1900.5 912.5L1895 918M1895 908L1895.5 907.5" stroke="black" stroke-width="3"/>
<path d="M2045 927L2065 907M2075 907L2055 927M2065 927L2085 907M2095 907L2075 927M2085 927L2105 907M2115 907L2095 927M2105 927L2125 907M2135 907L2115 927M2125 927L2145 907M2155 907L2135 927M2144 928L2165 907M2175 907L2144 938M2144 948L2185 907M2164 938L2144 958M2124 978L2135 967M2124 968L2125 967M2164 948L2145 967M2144 968L2124 988M2105 1007L2104 1008M2164 958L2155 967M2164 966L2163 967M2144 978L2124 998M2115 1007L2104 1018M2144 988L2125 1007M2124 1008L2104 1028M2144 998L2135 1007M2124 1018L2104 1038M2144 1006L2143 1007M2124 1028L2105 1047M2104 1048L2084 1068M2084 1058L2095 1047M2085 1047L2084 1048M2115 1047L2124 1038M2124 1046L2123 1047M2104 1058L2084 1078M2075 1087L2064 1098M2065 1087L2064 1088M2104 1068L2085 1087M2084 1088L2064 1108M2104 1078L2095 1087M2104 1086L2103 1087M2084 1098L2064 1118M2055 1127L2049.5 1132.5M2045 1127L2044.5 1127.5M2054.5 1137.5L2084 1108M2084 1118L2059.5 1142.5M2065 1147L2085 1127M2095 1127L2075 1147M2085 1147L2105 1127M2115 1127L2095 1147M2105 1147L2125 1127M2135 1127L2115 1147M2125 1147L2145 1127M2155 1127L2135 1147M2145 1147L2165 1127M2175 1127L2155 1147M2165 1147L2185 1127M2194.5 1127.5L2175 1147M2185 1147L2199.5 1132.5M2204.5 1137.5L2195 1147M2205 1147L2209.5 1142.5M2213 1147L2213.5 1146.5" stroke="black" stroke-width="3"/>
<path d="M542 566L541 567M551 567L541 577M531 587L512 606M521 607L531 597M541 587L551 577M551 587L541 597M531 607L521 617M521 627L531 617M541 607L551 597M551 607L541 617M531 627L521 637M521 647L531 637M541 627L551 617M551 627L541 637M531 647L521 657M521 667L531 657M541 647L551 637M551 647L541 657M531 667L521 677M521 687L531 677M541 667L551 657M551 667L541 677M531 687L521 697M521 707L531 697M541 687L551 677M551 687L541 697M531 707L521 717M521 727L531 717M541 707L551 697M572 686L552 706M551 707L541 717M531 727L521 737M521 747L531 737M541 727L551 717M562 706L582 686M591 687L572 706M551 727L541 737M531 747L521 757M521 767L531 757M541 747L551 737M551 747L541 757M532 766L521 777M521 787L551 757M551 766L521 797M522 806L531 797M531 805L530 806M691 786L671 806M662 806L682 786M672 786L652 806M642 806L662 786M652 786L632 806M622 806L642 786M632 786L612 806M602 806L622 786M612 786L592 806M582 806L611 777M611 767L572 806M591 777L611 757M611 747L591 767M591 757L611 737M611 727L591 747M591 737L611 717M611 707L591 727M591 717L602 706M592 706L591 707M582 706L591 697M610 686L611 685M611 677L602 686M592 686L611 667M611 657L591 677M591 667L611 647M591 657L602 646M591 647L592 646M630 646L631 645M631 637L622 646M612 646L631 627M631 617L611 637M611 627L631 607M611 617L622 606M611 607L612 606M611.5 566.5L612 566M622 566L616.5 571.5M621.5 576.5L632 566M642 566L626.5 581.5M631 587L652 566M662 566L631 597M632 606L651 587M652 586L671.5 566.5M676.5 571.5L662 586M651 597L642 606M650 606L651 605M672 586L681.5 576.5M686.5 581.5L682 586M690 586L690.5 585.5" stroke="black" stroke-width="3"/>
<path d="M1136 566L1135 567M1145 567L1135 577M1125 587L1106 606M1115 607L1125 597M1135 587L1145 577M1146 586L1135 597M1125 607L1115 617M1115 627L1125 617M1135 607L1156 586M1145 607L1135 617M1125 627L1115 637M1115 647L1125 637M1135 627L1145 617M1145 627L1135 637M1125 647L1115 657M1115 667L1125 657M1135 647L1145 637M1145 647L1135 657M1125 667L1115 677M1115 687L1125 677M1135 667L1145 657M1145 667L1135 677M1125 687L1115 697M1115 707L1125 697M1135 687L1145 677M1145 687L1135 697M1125 707L1115 717M1115 727L1125 717M1135 707L1145 697M1145 707L1135 717M1125 727L1115 737M1115 747L1125 737M1135 727L1145 717M1145 727L1135 737M1125 747L1115 757M1115 767L1125 757M1135 747L1145 737M1145 747L1135 757M1126 766L1115 777M1115 787L1145 757M1145 766L1115 797M1116 806L1125 797M1125 805L1124 806M1165 587L1146 606M1165 597L1156 606M1166 606L1165 607M1165 605L1164 606M1176 606L1165 617M1185 607L1165 627M1165 637L1185 617M1185 627L1175 637L1165 647M1176 646L1185 637M1186 646L1185 647M1196 646L1185 657M1205 647L1185 667M1185 677L1205 657M1196 686L1205 677M1186 686L1205 667M1226 646L1225 647M1236 646L1225 657M1225 677L1245 657M1236 686L1245 677M1226 686L1245 667M1206 686L1205 687M1216 686L1205 697M1225 687L1205 707M1205 717L1225 697M1205 737L1225 717M1205 727L1225 707M1225 727L1205 747M1225 737L1205 757M1205 766L1225 746M1265 697L1266 696L1285 677M1265 707L1276 696L1285 687M1285 697L1265 717M1265 727L1285 707M1265 747L1285 727M1265 737L1285 717M1246 626L1245 627M1256 626L1245 637M1246 646L1275.5 616.5M1256 646L1280.5 621.5M1244 686L1245 685M1265.5 606.5L1265 607M1270.5 611.5L1265 617M1265 657L1285 637M1266 646L1285 627M1265 677L1285 657M1265 687L1285 667M1285 647L1265 667M1265 797L1285 777M1265 806L1285 786M1265 757L1285 737M1265 777L1285 757M1265 787L1285 767M1285 747L1265 767M1225 667L1245 647" stroke="black" stroke-width="3"/>
<path d="M1455 566L1454 567M1464 567L1454 577M1444 587L1425 606M1434 607L1444 597M1454 587L1464 577M1465 586L1454 597M1444 607L1434 617M1434 627L1444 617M1454 607L1475 586M1464 607L1454 617M1444 627L1434 637M1434 647L1444 637M1454 627L1464 617M1464 627L1454 637M1444 647L1434 657M1434 667L1444 657M1454 647L1464 637M1464 647L1454 657M1444 667L1434 677M1434 687L1444 677M1454 667L1464 657M1464 667L1454 677M1444 687L1434 697M1434 707L1444 697M1454 687L1464 677M1464 687L1454 697M1444 707L1434 717M1434 727L1444 717M1454 707L1464 697M1464 707L1454 717M1444 727L1434 737M1434 747L1444 737M1454 727L1464 717M1464 727L1454 737M1444 747L1434 757M1434 767L1444 757M1454 747L1464 737M1464 747L1454 757M1445 766L1434 777M1434 787L1464 757M1464 766L1434 797M1435 806L1444 797M1444 805L1443 806M1484 587L1465 606M1484 597L1475 606M1485 606L1484 607M1495 606L1484 617M1504 607L1484 627M1504 617L1484 637M1504 637L1495 646M1504 627L1485 646M1505 646L1504 647M1515 646L1504 657M1524 647L1504 667M1524 657L1504 677M1524 667L1505 686M1524 677L1515 686M1525 686L1524 687M1535 686L1524 697M1544 687L1524 707M1544 697L1524 717M1544 707L1525 726M1544 717L1535 726M1545 726L1544 727M1555 726L1544 737M1564 727L1544 747M1564 737L1544 757M1564 747L1554.5 756.5L1545 766M1564 757L1555 766M1565 766L1564 767M1575 766L1564 777M1604 747L1565 786M1604 757L1575 786M1604 767L1584 787M1604 777L1584 797M1604 786L1584 806M1604 687L1584 707M1604 697L1584 717M1604 717L1584 737M1604 727L1584 747M1604 737L1584 757M1604 627L1584 647M1604 637L1584 657M1604 647L1584 667M1584 677L1604 657M1604 667L1584 687M1604 677L1584 697M1594.5 576.5L1584 587M1599.5 581.5L1584 597M1604 587L1584 607M1584 617L1604 597M1604 607L1584 627M1604 617L1584 637M1584.5 566.5L1584 567M1589.5 571.5L1584 577M1604 707L1584 727" stroke="black" stroke-width="3"/>
<path d="M827 566L826 567M836 567L826 577M816 587L797 606M806 607L816 597M826 587L836 577M836 587L826 597M816 607L806 617M806 627L816 617M826 607L836 597M836 607L826 617M816 627L806 637M806 647L816 637M826 627L836 617M836 627L826 637M816 647L806 657M806 667L816 657M826 647L836 637M836 647L826 657M816 667L806 677M806 687L816 677M826 667L836 657M836 667L826 677M816 687L806 697M806 707L816 697M826 687L836 677M836 687L826 697M816 707L806 717M806 727L816 717M826 707L836 697M836 707L826 717M816 727L806 737M806 747L816 737M826 727L836 717M836 727L826 737M816 747L806 757M806 767L816 757M826 747L836 737M836 747L826 757M816 767L806 777M787 806L816 777M826 767L836 757M836 767L826 777M817 786L797 806M807 806L836 777M837 786L817 806M827 806L847 786M857 786L837 806M847 806L867 786M877 786L857 806M867 806L887 786M897 786L877 806M887 806L907 786M917 786L897 806M907 806L927 786M937 786L917 806M927 806L947 786M957 786L937 806M946 806L966 786M976 786L956 806" stroke="black" stroke-width="3"/>
<path d="M1764 566L1763 567M1774 566L1763 577M1753 587L1734 606M1743 607L1753 597M1763 587L1784 566M1773 587L1763 597M1753 607L1743 617M1743 627L1753 617M1763 607L1773 597M1773 607L1763 617M1753 627L1743 637M1743 647L1753 637M1763 627L1773 617M1773 627L1763 637M1753 647L1743 657M1743 667L1753 657M1763 647L1773 637M1773 647L1763 657M1753 667L1743 677M1743 687L1753 677M1763 667L1773 657M1773 667L1763 677M1753 687L1743 697M1743 707L1753 697M1763 687L1773 677M1773 687L1763 697M1753 707L1743 717M1743 727L1753 717M1763 707L1773 697M1773 707L1763 717M1753 727L1743 737M1743 747L1753 737M1763 727L1773 717M1773 727L1763 737M1753 747L1743 757M1743 767L1753 757M1763 747L1773 737M1773 747L1763 757M1753 767L1743 777M1743.5 786.5L1753 777M1763 767L1773 757M1773 767L1763 777M1754 786L1748.5 791.5M1753.5 796.5L1773 777M1774 786L1758.5 801.5M1764 806L1784 786M1794 786L1774 806M1784 806L1804 786M1814 786L1794 806M1804 806L1824 786M1834 786L1814 806M1824 806L1844 786M1854 786L1834 806M1844 806L1864 786M1874 786L1854 806M1874 806L1893.5 786.5L1913 767M1913 777L1884 806M1893 806L1913 786M1913 757L1893 777M1893 767L1913 747M1913 737L1893 757M1893 747L1913 727M1913 717L1893 737M1893 727L1913 707M1913 697L1893 717M1893 707L1913 687M1913 677L1893 697M1893 687L1913 667M1913 657L1893 677M1893 667L1913 647M1913 637L1893 657M1893 647L1913 627M1913 617L1893 637M1893 627L1913 607M1913 597L1893 617M1893 607L1913 587M1903.5 576.5L1893 587M1774 586L1794 566M1784 586L1804 566M1794 586L1814 566M1804 586L1824 566M1814 586L1834 566M1824 586L1844 566M1834 586L1854 566M1844 586L1864 566M1854 586L1874 566M1864 586L1884 566M1874 586L1893.5 566.5M1884 586L1898.5 571.5M1884 786L1864 806M1893 597L1908.5 581.5" stroke="black" stroke-width="3"/>
<path d="M2073 566L2072 567M2083 566L2072 577M2062 587L2043 606M2052 607L2062 597M2072 587L2093 566M2082 587L2072 597M2062 607L2052 617M2052 627L2062 617M2072 607L2082 597M2082 607L2072 617M2062 627L2052 637M2052 647L2062 637M2072 627L2082 617M2082 627L2072 637M2062 647L2052 657M2052 667L2062 657M2072 647L2082 637M2082 647L2072 657M2062 667L2052 677M2052 687L2062 677M2072 667L2082 657M2082 667L2072 677M2062 687L2052 697M2052 707L2062 697M2072 687L2082 677M2082 687L2072 697M2062 707L2052 717M2052 727L2062 717M2072 707L2082 697M2082 707L2072 717M2062 727L2052 737M2052 747L2062 737M2072 727L2082 717M2082 727L2072 737M2062 747L2052 757M2052 767L2062 757M2072 747L2082 737M2082 747L2072 757M2062 767L2052 777M2033 806L2062 777M2072 767L2082 757M2082 767L2072 777M2063 786L2043 806M2053 806L2082 777M2082 787L2063 806M2073 806L2082 797M2082 805L2081 806M2083 686L2103 666M2113 666L2093 686M2103 686L2123 666M2133 666L2113 686M2123 686L2143 666M2153 666L2133 686M2143 686L2163 666M2173 666L2153 686M2173 686L2193 666M2222 666L2202 686M2222 657L2193 686M2183 686L2222 647M2222 637L2202 657M2202 647L2222 627M2222 617L2202 637M2202 627L2222 607M2222 597L2202 617M2202 607L2222 587M2217.5 581.5L2202 597M2202 587L2207.25 581.75L2212.5 576.5M2163 686L2183 666M2207.5 571.5L2193 586M2202.5 566.5L2183 586M2083 586L2103 566M2113 566L2093 586M2103 586L2123 566M2133 566L2113 586M2123 586L2143 566M2153 566L2133 586M2143 586L2163 566M2173 566L2153 586M2173 586L2193 566M2163 586L2183 566" stroke="black" stroke-width="3"/>
<path d="M2691 566L2690 567M2701 566L2690 577M2680 587L2661 606M2670 607L2680 597M2690 587L2711 566M2700 587L2690 597M2680 607L2670 617M2670 627L2680 617M2690 607L2700 597M2700 607L2690 617M2680 627L2670 637M2670 647L2680 637M2690 627L2700 617M2700 627L2690 637M2680 647L2670 657M2670 667L2680 657M2690 647L2700 637M2700 647L2690 657M2680 667L2670 677M2670 687L2680 677M2690 667L2700 657M2700 667L2690 677M2680 687L2670 697M2670 707L2680 697M2690 687L2700 677M2700 687L2690 697M2680 707L2670 717M2670 727L2680 717M2690 707L2700 697M2700 707L2690 717M2680 727L2670 737M2670 747L2680 737M2690 727L2700 717M2700 727L2690 737M2680 747L2670 757M2670 767L2680 757M2690 747L2700 737M2700 747L2690 757M2680 767L2670 777M2651 806L2680 777M2690 767L2700 757M2700 767L2690 777M2681 786L2661 806M2671 806L2700 777M2700 787L2681 806M2691 806L2700 797M2700 805L2699 806M2701 686L2721 666M2731 666L2711 686M2720 687L2741 666M2751 666L2720 697M2741 686L2761 666M2771 666L2751 686M2761 686L2781 666M2791 666L2771 686M2791 686L2811 666M2840 666L2820 686M2840 657L2811 686M2801 686L2840 647M2840 637L2820 657M2820 647L2840 627M2840 617L2820 637M2820 627L2840 607M2840 597L2820 617M2820 607L2840 587M2835.5 581.5L2820 597M2820 587L2825.25 581.75L2830.5 576.5M2781 686L2801 666M2825.5 571.5L2811 586M2820.5 566.5L2801 586M2701 586L2721 566M2731 566L2711 586M2721 586L2741 566M2751 566L2731 586M2741 586L2761 566M2771 566L2751 586M2761 586L2781 566M2791 566L2771 586M2791 586L2811 566M2781 586L2801 566M2720 707L2730 697L2740 687M2720 717L2740 697M2721 726L2740 707M2731 726L2740 717M2751 726L2740 737M2740 747L2750 737L2760 727M2740 757L2760 737M2741 766L2760 747M2751 766L2760 757M2741 726L2740 727M2771 766L2760 777M2760 787L2770 777L2780 767M2760 797L2780 777M2761 806L2781 786M2771 806L2791 786M2761 766L2760 767M2781 806L2801 786M2791 806L2811 786M2801 806L2821 786M2811 806L2831 786M2820 806L2840 786" stroke="black" stroke-width="3"/>
<path d="M2382 566L2381 567M2392 566L2381 577M2371 587L2352 606M2361 607L2371 597M2381 587L2402 566M2391 587L2381 597M2371 607L2361 617M2361 627L2371 617M2381 607L2391 597M2391 607L2381 617M2371 627L2361 637M2361 647L2371 637M2381 627L2391 617M2391 627L2381 637M2371 647L2361 657M2361 667L2371 657M2381 647L2391 637M2391 647L2381 657M2371 667L2361 677M2361 687L2371 677M2381 667L2391 657M2391 667L2381 677M2371 687L2361 697M2361 707L2371 697M2381 687L2391 677M2391 687L2381 697M2371 707L2361 717M2361 727L2371 717M2381 707L2391 697M2391 707L2381 717M2371 727L2361 737M2361 747L2371 737M2381 727L2391 717M2391 727L2381 737M2371 747L2361 757M2361 767L2371 757M2381 747L2391 737M2391 747L2381 757M2371 767L2361 777M2361.5 786.5L2371 777M2381 767L2391 757M2391 767L2381 777M2372 786L2366.5 791.5M2371.5 796.5L2391 777M2392 786L2376.5 801.5M2382 806L2402 786M2412 786L2392 806M2402 806L2422 786M2432 786L2412 806M2422 806L2442 786M2452 786L2432 806M2442 806L2462 786M2472 786L2452 806M2462 806L2472 796L2482 786M2471 806L2491 786L2531 746M2511 787L2512 786M2511 777L2502 786M2531 737L2491 777M2491 757L2502 746M2531 717L2511 737M2511 727L2531 707M2531 697L2511 717M2511 707L2531 687M2531 677L2511 697M2511 687L2531 667M2531 657L2511 677M2511 667L2531 647M2531 637L2511 657M2511 647L2531 627M2531 617L2511 637M2511 627L2531 607M2531 597L2511 617M2511 607L2531 587M2526.5 581.5L2511 597M2511 587L2521.5 576.5M2516.5 571.5L2502 586M2492 586L2511.5 566.5M2531 727L2491 767M2512 806L2532 786M2542 786L2522 806M2551 787L2532 806M2511 797L2522 786M2551 797L2542 806M2551 805L2550 806M2392 586L2412 566M2432 566L2412 586M2422 586L2442 566M2452 566L2432 586M2442 586L2462 566M2472 566L2452 586M2462 586L2482 566M2492 566L2472 586M2422 566L2402 586M2502 566L2482 586" stroke="black" stroke-width="3"/>
<path d="M2990 786.005L2970 806.005M3010 786.005L2990 806.005M3000 806.005L3020 786.005M3030 786.005L3010 806.005M3020 806.005L3040 786.005M3050 786.005L3030 806.005M3040 806.005L3060 786.005M3070 786.005L3050 806.005M3060 806.005L3080 786.005M3109 767.005L3070 806.005M3080 806.005L3109 777.005M3110 786.005L3090 806.005M3100 806.005L3120 786.005M3129.5 786.005L3109 806.005M2980 786.005L2960 806.005M3000 786.005L2980 806.005M3109 757.005L3089 777.005M3109 747.006L3089 767.006M3089 727.005L3070 746M3089 717.006L3069 737.006M3089 707.004L3069 727.004M3080 706.003L3069 717.005M3069 697.006L3060 706.003M3069 687.007L3050 706.003M3069 677.006L3049 697.006M3069 667.007L3049 687.007M3060 666L3049 677M3050 666L3049 667M3049 657L3040 666M3049 647.006L3030 666M3049 637.005L3029 657.005M3049 627.006L3029 647.006M3040 626.003L3029 637.005M3030 626.003L3029 627.006M3029 617L3020 626.003M3029 607.001L3010 626.003M3029 597L3009 617M3029 587.001L3009 607.001M3000 566L2994.5 571.5M2990 566L2989.5 566.499M3020 566L3004.5 581.5M3010 566L2999.5 576.5M3040 566L3009 597M3030 566L3009 587.001M3060 566L3040 586M3050 566L3030 586M3070 566L3050 586M3080 566L3060 586M3090 566L3070 586M3100 566L3080 586M3109.5 566.499L3090 586M3114.5 571.5L3100 586M3119.5 576.5L3110 586M3124.5 581.5L3120 586M3128.5 585.5L3128 586M3070 706L3069 707M3089 737.006L3080 746M3100 746L3089 756.994M3090 746L3089 747.006" stroke="black" stroke-width="3"/>
<path d="M3358 787L3378 767M3378 777L3358 797M3358 806L3378 786M3378 757L3358 777M3358 767L3378 747M3378 737L3358 757M3358 747L3378 727M3378 717L3358 737M3358 727L3378 707M3378 697L3358 717M3358 707L3378 687M3378 677L3358 697M3358 687L3378 667M3378 657L3358 677M3358 667L3378 647M3378 637L3358 657M3358 647L3378 627M3378 617L3358 637M3358 627L3378 607M3378 597L3358 617M3358 607L3378 587M3389 566L3358 597M3358 587L3379 566M3369 566L3349 586M3339 586L3359 566M3289 566L3283.5 571.5M3288.5 576.5L3299 566M3309 566L3293.5 581.5M3299 586L3319 566M3329 566L3309 586M3319 586L3339 566M3349 566L3329 586M3409 566L3389 586M3399 586L3418.5 566.5M3423.5 571.5L3409 586M3419 586L3428.5 576.5M3433.5 581.5L3429 586M3279 566L3278.5 566.5M3399 566L3379 586M3437.5 585.5L3437 586" stroke="black" stroke-width="3"/>
<path d="M2670 258L2650 278M2660 279L2670 269M2670 279L2660 289M2660 299L2670 289M2670 299L2660 309M2660 319L2670 309M2670 319L2660 329M2660 339L2670 329M2670 339L2660 349M2660 359L2670 349M2670 359L2660 369M2660 379L2670 369M2670 379L2660 389M2660 399L2670 389M2670 399L2660 409M2660 419L2670 409M2670 419L2660 429M2660 439L2670 429M2671 438L2660 449M2660 459L2690 429M2690 438L2660 468.5M2661 478L2670 469M2680 239L2681 238M2690 239L2680 249M2680 259L2690 249M2690 259L2680 269M2680 279L2690 269M2690 279L2680 289M2680 299L2690 289M2690 299L2680 309M2680 319L2690 309M2690 319L2680 329M2680 339L2690 329M2690 339L2680 349M2680 359L2690 349M2690 359L2680 369M2680 379L2690 369M2680 389L2690 379M2711 338L2691 358M2690 389L2680 399M2680 409L2690 399M2690 409L2680 419M2680 429L2690 419M2701 358L2721 338M2731 338L2711 358M2721 358L2741 338M2751 338L2731 358M2741 358L2761 338M2771 338L2751 358M2761 358L2781 338M2791 338L2771 358M2810 359L2830 339M2830 349L2810 369M2810 379L2830 359M2830 369L2810 389M2810 399L2830 379M2830 389L2810 409M2810 419L2830 399M2830 409L2810 429M2810 439L2830 419M2830 429L2810 449M2810 459L2830 439M2830 449L2810 469M2810 478L2830 458.5M2830 329L2810 349M2810 339L2830 319M2830 309L2810 329M2810 319L2830 299M2830 289L2810 309M2810 299L2830 279M2830 269L2810 289M2810 279L2830 259M2825.5 253.5L2810 269M2810 259L2820.5 248.5M2815.5 243.5L2810 249M2810 239L2810.5 238.5M2781 358L2801 338M2811 338L2791 358" stroke="black" stroke-width="3"/>
<path d="M827 238L826 239M837 238L826 249M816 259L797 278M806 279L816 269M826 259L847 238M836 259L826 269M816 279L806 289M806 299L816 289M826 279L836 269M836 279L826 289M816 299L806 309M806 319L816 309M826 299L836 289M836 299L826 309M816 319L806 329M806 339L816 329M826 319L836 309M836 319L826 329M816 339L806 349M806 359L816 349M826 339L836 329M836 339L826 349M816 359L806 369M806 379L816 369M826 359L836 349M836 359L826 369M816 379L806 389M806 399L816 389M826 379L836 369M836 379L826 389M816 399L806 409M806 419L816 409M826 399L836 389M836 399L826 409M816 419L806 429M806 439L816 429M826 419L836 409M836 419L826 429M816 439L806 449M787 478L816 449M826 439L836 429M836 439L826 449M817 458L797 478M807 478L836 449M837 458L817 478M827 478L847 458M857 458L837 478M847 478L867 458M877 458L857 478M867 478L887 458M897 458L877 478M887 478L907 458M917 458L897 478M907 478L927 458M937 458L917 478M937 478L976 439M976 449L947 478M956 478L976 458M976 429L956 449M956 439L976 419M976 409L956 429M956 409L967 398M957 398L956 399M956 389L947 398M937 398L956 379M956 369L936 389M936 379L956 359M947 358L936 369M927 358L936 349M956 318L916 358M936 329L956 309M956 299L936 319M936 309L956 289M956 279L936 299M936 289L956 269M956 259L936 279M936 269L951.5 253.5M946.5 248.5L936 259M857 238L837 258M867 238L847 258M877 238L857 258M887 238L867 258M897 238L877 258M907 238L887 258M917 238L897 258M927 238L907 258M936.5 238.5L917 258M941.5 243.5L927 258M867 338L847 358M837 358L857 338M887 338L867 358M857 358L877 338M907 338L887 358M877 358L897 338M927 338L907 358M897 358L917 338M936 359L937 358M947 458L927 478M976 399L956 419" stroke="black" stroke-width="3"/>
<path d="M1136 238L1135 239M1146 238L1135 249M1125 259L1106 278M1115 279L1125 269M1135 259L1156 238M1145 259L1135 269M1125 279L1115 289M1115 299L1125 289M1135 279L1145 269M1145 279L1135 289M1125 299L1115 309M1115 319L1125 309M1135 299L1145 289M1145 299L1135 309M1125 319L1115 329M1115 339L1125 329M1135 319L1145 309M1145 319L1135 329M1125 339L1115 349M1115 359L1125 349M1135 339L1145 329M1145 339L1135 349M1125 359L1115 369M1115 379L1125 369M1135 359L1145 349M1145 359L1135 369M1125 379L1115 389M1115 399L1125 389M1135 379L1145 369M1145 379L1135 389M1125 399L1115 409M1115 419L1125 409M1135 399L1145 389M1145 399L1135 409M1125 419L1115 429M1115 439L1125 429M1135 419L1145 409M1145 419L1135 429M1125 439L1115 449M1096 478L1125 449M1135 439L1145 429M1145 439L1135 449M1126 458L1106 478M1116 478L1145 449M1146 458L1126 478M1136 478L1156 458M1166 458L1146 478M1156 478L1176 458M1186 458L1166 478M1176 478L1196 458M1206 458L1186 478M1196 478L1216 458M1226 458L1206 478M1216 478L1236 458M1246 458L1226 478M1236 478L1256 458M1266 458L1256 468L1251 473L1246 478M1255 478L1275 458M1265 478L1285 458M1146 258L1166 238M1176 238L1156 258M1166 258L1186 238M1196 238L1176 258M1186 258L1206 238M1216 238L1196 258M1206 258L1226 238M1236 238L1216 258M1226 258L1246 238M1255.5 238.5L1236 258M1246 258L1253.25 250.75L1260.5 243.5M1265 258L1270 253M1265.5 248.5L1256 258M1274 258L1274.5 257.5" stroke="black" stroke-width="3"/>
<path d="M1754 238L1753 239M1764 238L1753 249M1743 259L1724 278M1733 279L1743 269M1753 259L1774 238M1763 259L1753 269M1743 279L1733 289M1733 299L1743 289M1753 279L1763 269M1763 279L1753 289M1743 299L1733 309M1733 319L1743 309M1753 299L1763 289M1763 299L1753 309M1743 319L1733 329M1733 339L1743 329M1753 319L1763 309M1763 319L1753 329M1743 339L1733 349M1733 359L1743 349M1753 339L1763 329M1763 339L1753 349M1743 359L1733 369M1733 379L1743 369M1753 359L1763 349M1763 359L1753 369M1743 379L1733 389M1733 399L1743 389M1753 379L1763 369M1763 379L1753 389M1743 399L1733 409M1733 419L1743 409M1753 399L1763 389M1763 399L1753 409M1743 419L1733 429M1733 439L1743 429M1753 419L1763 409M1763 419L1753 429M1743 439L1733 449M1714 478L1743 449M1753 439L1763 429M1763 439L1753 449M1744 458L1724 478M1734 478L1763 449M1764 458L1744 478M1754 478L1774 458M1784 458L1764 478M1774 478L1794 458M1804 458L1784 478M1794 478L1814 458M1824 458L1804 478M1814 478L1834 458M1844 458L1824 478M1834 478L1854 458M1864 458L1844 478M1854 478L1874 458M1884 458L1874 468L1869 473L1864 478M1873 478L1893 458M1883 478L1903 458M1764 258L1784 238M1794 238L1774 258M1784 258L1804 238M1814 238L1794 258M1804 258L1824 238M1834 238L1814 258M1824 258L1844 238M1854 238L1834 258M1844 258L1864 238M1873.5 238.5L1854 258M1864 258L1871.25 250.75L1878.5 243.5M1883 258L1888 253M1883.5 248.5L1874 258M1892 258L1892.5 257.5M1784 338L1764 358M1794 338L1774 358M1804 338L1784 358M1814 338L1794 358M1824 338L1804 358M1834 338L1814 358M1844 338L1824 358M1854 338L1834 358" stroke="black" stroke-width="3"/>
<path d="M1445 238L1444 239M1454 238L1444 248M1434 258L1415 277M1424 278L1434 268M1444 258L1464 238M1444 268L1454 258L1465 247L1474 238M1434 278L1424 288M1424 298L1434 288M1444 278L1454 268M1454 278L1444 288M1434 298L1424 308M1424 318L1434 308M1444 298L1454 288M1454 298L1444 308M1434 318L1424 328M1424 338L1434 328M1444 318L1454 308M1454 318L1444 328M1434 338L1424 348M1424 358L1434 348M1444 338L1454 328M1454 338L1444 348M1434 358L1424 368M1424 378L1434 368M1444 358L1454 348M1454 358L1444 368M1434 378L1424 388M1424 398L1434 388M1444 378L1454 368M1454 378L1444 388M1434 398L1424 408M1424 418L1434 408M1444 398L1454 388M1454 398L1444 408M1434 418L1424 428M1424 438L1434 428M1444 418L1454 408M1454 418L1444 428M1434 438L1424 448M1404 478L1434 448M1444 438L1454 428M1454 438L1444 448M1434 458L1414 478M1424 478L1454 448M1454 458L1434 478M1444 478L1464 458M1474 458L1454 478M1464 478L1484 458M1494 458L1474 478M1484 478L1504 458M1514 458L1494 478M1504 478L1524 458M1534 458L1514 478M1524 478L1544 458M1554 458L1534 478M1554 478L1573.5 458.5L1584 448M1584 458L1564 478M1584 438L1544 478M1564 448L1584 428M1584 418L1564 438M1564 428L1584 408M1584 398L1564 418M1564 408L1584 388M1584 378L1564 398M1564 388L1584 368M1584 358L1564 378M1564 368L1584 348M1584 338L1564 358M1564 348L1584 328M1584 318L1564 338M1564 328L1584 308M1584 298L1564 318M1564 308L1584 288M1584 278L1564 298M1564 288L1584 268M1579 253L1564 268M1464 258L1484 238M1474 258L1494 238M1484 258L1504 238M1494 258L1514 238M1504 258L1524 238M1514 258L1534 238M1524 258L1544 238M1534 258L1554 238M1544 258L1564 238M1554 258L1569 243M1564 258L1574 248M1564 278L1584 258" stroke="black" stroke-width="3"/>
<path d="M2063 238L2062 239M2073 238L2062 249M2052 259L2033 278M2042 279L2052 269M2062 259L2083 238M2072 259L2062 269M2052 279L2042 289M2042 299L2052 289M2062 279L2072 269M2072 279L2062 289M2052 299L2042 309M2042 319L2052 309M2062 299L2072 289M2072 299L2062 309M2052 319L2042 329M2042 339L2052 329M2062 319L2072 309M2072 319L2062 329M2052 339L2042 349M2042 359L2052 349M2062 339L2072 329M2072 339L2062 349M2052 359L2042 369M2042 379L2052 369M2062 359L2072 349M2072 359L2062 369M2052 379L2042 389M2042 399L2052 389M2062 379L2072 369M2072 379L2062 389M2052 399L2042 409M2042 419L2052 409M2062 399L2072 389M2072 399L2062 409M2052 419L2042 429M2042 439L2052 429M2062 419L2072 409M2072 419L2062 429M2053 438L2042 449M2042 459L2052 449L2072 429M2072 439L2053 458L2042 468.5M2043 478L2052 469M2052 477L2051 478M2073 358L2093 338M2103 338L2083 358M2093 358L2113 338M2123 338L2103 358M2113 358L2133 338M2143 338L2123 358M2133 358L2153 338M2163 338L2143 358M2201.5 257.5L2201 258M2193 258L2197.25 253.75L2197.5 253.5M2192.5 248.5L2183 258M2187.5 243.5L2173 258M2073 258L2093 238M2103 238L2083 258M2093 258L2113 238M2123 238L2103 258M2113 258L2133 238M2143 238L2123 258M2133 258L2153 238M2163 238L2143 258M2163 258L2182.5 238.5M2153 258L2173 238" stroke="black" stroke-width="3"/>
<path d="M2372 238L2371 239M2382 238L2371 249M2361 259L2342 278M2351 279L2361 269M2371 259L2392 238M2381 259L2371 269M2361 279L2351 289M2351 299L2361 289M2371 279L2381 269M2381 279L2371 289M2361 299L2351 309M2351 319L2361 309M2371 299L2381 289M2381 299L2371 309M2361 319L2351 329M2351 339L2361 329M2371 319L2381 309M2381 319L2371 329M2361 339L2351 349M2351 359L2361 349M2371 339L2381 329M2381 339L2371 349M2361 359L2351 369M2351 379L2361 369M2371 359L2381 349M2381 359L2371 369M2361 379L2351 389M2351 399L2361 389M2371 379L2381 369M2381 379L2371 389M2361 399L2351 409M2351 419L2361 409M2371 399L2381 389M2381 399L2371 409M2361 419L2351 429M2351 439L2361 429M2371 419L2381 409M2381 419L2371 429M2361 439L2351 449M2332 478L2361 449M2371 439L2381 429M2381 439L2371 449M2362 458L2342 478M2352 478L2381 449M2382 458L2362 478M2372 478L2392 458M2402 458L2382 478M2392 478L2412 458M2422 458L2402 478M2412 478L2432 458M2442 458L2422 478M2432 478L2452 458M2442 478L2481 439M2481 449L2452 478M2461 478L2481 458M2481 429L2461 449M2461 439L2481 419M2481 409L2461 429M2461 419L2481 399M2481 389L2461 409M2461 399L2481 379M2481 369L2461 389M2492 338L2461 369M2461 359L2482 338M2472 338L2462 348L2452 358M2422 358L2442 338M2512 258L2516.5 253.5M2511.5 248.5L2502 258M2492 258L2506.5 243.5M2501.5 238.5L2482 258M2472 258L2492 238M2432 358L2452 338M2442 358L2462 338M2461 378L2501 338M2402 238L2382 258M2412 238L2392 258M2422 238L2402 258M2432 238L2412 258M2442 238L2422 258M2452 238L2432 258M2462 238L2442 258M2472 238L2452 258M2482 238L2462 258M2520 258L2520.5 257.5" stroke="black" stroke-width="3"/>
<path d="M3045 238L3024 259M3055 238L3035 258M3034 259L3024 269M3024 279L3034 269M3044 259L3065 238M3074 238L3044 268.5M3034 279L3024 289M3024 299L3034 289M3044 279L3054 269M3054 279L3044 289M3034 299L3024 309M3024 319L3034 309M3044 299L3054 289M3054 299L3044 309M3034 319L3024 329M3024 339L3034 329M3044 319L3054 309M3054 319L3044 329M3034 339L3024 349M3024 359L3034 349M3044 339L3054 329M3054 339L3044 349M3034 359L3024 369M3024 379L3034 369M3044 359L3054 349M3054 359L3044 369M3034 379L3024 389M3024 399L3034 389M3044 379L3054 369M3054 379L3044 389M3034 399L3024 409M3024 419L3034 409M3044 399L3054 389M3054 399L3044 409M3034 419L3024 429M3024 439L3034 429M3044 419L3054 409M3054 419L3044 429M3034 439L3024 449M3005 478L3034 449M3044 439L3054 429M3054 439L3044 449M3035 458L3015 478M3025 478L3054 449M3055 458L3035 478M3044 478L3064 458M3035 238L3015 258" stroke="black" stroke-width="3"/>
<path d="M3349 238L3328 259M3359 238L3339 258M3338 259L3328 269M3328 279L3338 269M3348 259L3369 238M3358 259L3348 269M3338 279L3328 289M3328 299L3338 289M3348 279L3358 269M3358 279L3348 289M3338 299L3328 309M3328 319L3338 309M3348 299L3358 289M3358 299L3348 309M3338 319L3328 329M3328 339L3338 329M3348 319L3358 309M3358 319L3348 329M3338 339L3328 349M3328 359L3338 349M3348 339L3358 329M3358 339L3348 349M3338 359L3328 369M3328 379L3338 369M3348 359L3358 349M3358 359L3348 369M3338 379L3328 389M3328 399L3338 389M3348 379L3358 369M3358 379L3348 389M3338 399L3328 409M3328 419L3338 409M3348 399L3358 389M3358 399L3348 409M3338 419L3328 429M3328 439L3338 429M3348 419L3358 409M3358 419L3348 429M3338 439L3328 449M3309 478L3338 449M3348 439L3358 429M3358 439L3348 449M3339 458L3319 478M3329 478L3358 449M3358 458L3338 478M3269 478L3308 439M3308 449L3279 478M3289 478L3309 458M3319 458L3299 478M3339 238L3319 258M3329 238L3309 258M3379 238L3359 258M3388 238L3368 258" stroke="black" stroke-width="3"/>
<path d="M532 258L512 278M522 279L532 269M532 279L522 289M522 299L532 289M532 299L522 309M522 319L532 309M532 319L522 329M522 339L532 329M532 339L522 349M522 359L532 349M532 359L522 369M522 379L532 369M532 379L522 389M522 399L532 389M532 399L522 409M522 419L532 409M532 419L522 429M522 439L532 429M533 438L522 449M522 459L552 429M542 239L543 238M553 238L542 249M542 259L563 238M573 238L542 269M542 279L552 269M552 279L542 289M542 299L552 289M552 299L542 309M542 319L552 309M552 319L542 329M542 339L552 329M552 339L542 349M542 359L552 349M552 359L542 369M542 379L552 369M573 358L593 338M552 389L542 399M542 409L552 399M552 409L542 419M542 429L552 419M583 358L603 338M613 338L593 358M603 358L623 338M633 338L613 358M623 358L643 338M653 338L633 358M643 358L663 338M692 338L672 358M672 379L692 359M692 369L672 389M672 399L692 379M692 389L672 409M672 419L692 399M692 409L672 429M672 439L692 419M692 429L672 449M672 459L692 439M692 449L672 469M672 478L692 458.5M692 329L672 349M653 358L692 319M692 309L672 329M672 319L692 299M692 289L672 309M672 299L692 279M692 269L672 289M672 279L692 259M687.5 253.5L672 269M672 259L682.5 248.5M677.5 243.5L663 258M653 258L672.5 238.5M663 238L643 258M633 258L653 238M643 238L623 258M613 258L633 238M623 238L603 258M593 258L613 238M603 238L583 258M573 258L593 238M583 238L563 258M552 438L522 468M553 358L573 338M563 358L583 338M542 389L552 379M532 468L522 478M531 478L532 477M672 369L692 349" stroke="black" stroke-width="3"/>
</svg>
