<svg width="3955" height="105" viewBox="0 0 3955 105" fill="none" xmlns="http://www.w3.org/2000/svg">
<path d="M583 2L479.462 105M427.692 105L531.231 2M479.462 2L375.923 105M324.154 105L427.692 2M375.923 2L272.385 105M220.615 105L324.154 2M272.385 2L168.846 105M117.077 105L220.615 2M168.846 2L65.3077 105M13.5385 105L117.077 2M65.3077 2L-38.2308 105M-90 105L13.5385 2" stroke="black" stroke-width="4"/>
<path d="M3376 2L3272.77 105M3221.15 105L3324.38 2M3272.77 2L3169.54 105M3117.92 105L3221.15 2M3169.54 2L3066.31 105M3014.69 105L3117.92 2M3066.31 2L2963.08 105M2911.46 105L3014.69 2M2963.08 2L2859.85 105M2808.23 105L2911.46 2M2859.85 2L2756.62 105M2705 105L2808.23 2" stroke="black" stroke-width="4"/>
<path d="M1722 2L1618.46 105M1566.69 105L1670.23 2M1618.46 2L1514.92 105M1463.15 105L1566.69 2M1514.92 2L1411.38 105M1359.62 105L1463.15 2M1411.38 2L1307.85 105M1256.08 105L1359.62 2M1307.85 2L1204.31 105M1152.54 105L1256.08 2M1204.31 2L1100.77 105M1049 105L1152.54 2" stroke="black" stroke-width="4"/>
<path d="M4515 2L4411.77 105M4360.15 105L4463.38 2M4411.77 2L4308.54 105M4256.92 105L4360.15 2M4308.54 2L4205.31 105M4153.69 105L4256.92 2M4205.31 2L4102.08 105M4050.46 105L4153.69 2M4102.08 2L3998.85 105M3947.23 105L4050.46 2M3998.85 2L3895.62 105M3844 105L3947.23 2" stroke="black" stroke-width="4"/>
<path d="M1152 2L1048.46 105M996.692 105L1100.23 2M1048.46 2L944.923 105M893.154 105L996.692 2M944.923 2L841.385 105M789.615 105L893.154 2M841.385 2L737.846 105M686.077 105L789.615 2M737.846 2L634.308 105M582.538 105L686.077 2M634.308 2L530.769 105M479 105L582.538 2" stroke="black" stroke-width="4"/>
<path d="M3945 2L3841.77 105M3790.15 105L3893.38 2M3841.77 2L3738.54 105M3686.92 105L3790.15 2M3738.54 2L3635.31 105M3583.69 105L3686.92 2M3635.31 2L3532.08 105M3480.46 105L3583.69 2M3532.08 2L3428.85 105M3377.23 105L3480.46 2M3428.85 2L3325.62 105M3274 105L3377.23 2" stroke="black" stroke-width="4"/>
<path d="M2291 2L2187.46 105M2135.69 105L2239.23 2M2187.46 2L2083.92 105M2032.15 105L2135.69 2M2083.92 2L1980.38 105M1928.62 105L2032.15 2M1980.38 2L1876.85 105M1825.08 105L1928.62 2M1876.85 2L1773.31 105M1721.54 105L1825.08 2M1773.31 2L1669.77 105M1618 105L1721.54 2" stroke="black" stroke-width="4"/>
<path d="M2860 2L2756.46 105M2704.69 105L2808.23 2M2756.46 2L2652.92 105M2601.15 105L2704.69 2M2652.92 2L2549.38 105M2497.62 105L2601.15 2M2549.38 2L2445.85 105M2394.08 105L2497.62 2M2445.85 2L2342.31 105M2290.54 105L2394.08 2M2342.31 2L2238.77 105M2187 105L2290.54 2" stroke="black" stroke-width="4"/>
</svg>
