<svg width="184" height="244" viewBox="0 0 184 244" fill="none" xmlns="http://www.w3.org/2000/svg">
<path d="M22 22L2 42M12 43L22 33M22 43L12 53M12 63L22 53M22 63L12 73M12 83L22 73M22 83L12 93M12 103L22 93M22 103L12 113M12 123L22 113M22 123L12 133M12 143L22 133M22 143L12 153M12 163L22 153M22 163L12 173M12 183L22 173M22 183L12 193M12 203L22 193M23 202L12 213M12 223L42 193M32 3L33 2M43 2L32 13M32 23L53 2M63 2L32 33M32 43L42 33M42 43L32 53M32 63L42 53M42 63L32 73M32 83L42 73M42 83L32 93M32 103L42 93M42 103L32 113M32 123L42 113M42 123L32 133M32 143L42 133M63 122L83 102M42 153L32 163M32 173L42 163M42 173L32 183M32 193L42 183M73 122L93 102M103 102L83 122M93 122L113 102M123 102L103 122M113 122L133 102M143 102L123 122M133 122L153 102M182 102L162 122M162 143L182 123M182 133L162 153M162 163L182 143M182 153L162 173M162 183L182 163M182 173L162 193M162 203L182 183M182 193L162 213M162 223L182 203M182 213L162 233M162 242L182 222.5M182 93L162 113M143 122L182 83M182 73L162 93M162 83L182 63M182 53L162 73M162 63L182 43M182 33L162 53M162 43L182 23M177.5 17.5L162 33M162 23L172.5 12.5M167.5 7.5L153 22M143 22L162.5 2.5M153 2L133 22M123 22L143 2M133 2L113 22M103 22L123 2M113 2L93 22M83 22L103 2M93 2L73 22M63 22L83 2M73 2L53 22M42 202L12 232M43 122L63 102M53 122L73 102M32 153L42 143M22 232L12 242M21 242L22 241M162 133L182 113" stroke="black" stroke-width="3"/>
</svg>
