<svg width="193" height="244" viewBox="0 0 193 244" fill="none" xmlns="http://www.w3.org/2000/svg">
<path d="M42 2L41 3M52 2L41 13M31 23L12 42M21 43L31 33M41 23L62 2M51 23L41 33M31 43L21 53M21 63L31 53M41 43L51 33M51 43L41 53M31 63L21 73M21 83L31 73M41 63L51 53M51 63L41 73M31 83L21 93M21 103L31 93M41 83L51 73M51 83L41 93M31 103L21 113M21 123L31 113M41 103L51 93M51 103L41 113M31 123L21 133M21 143L31 133M41 123L51 113M51 123L41 133M31 143L21 153M21 163L31 153M41 143L51 133M51 143L41 153M31 163L21 173M21 183L31 173M41 163L51 153M51 163L41 173M31 183L21 193M21 203L31 193M41 183L51 173M51 183L41 193M31 203L21 213M2 242L31 213M41 203L51 193M51 203L41 213M32 222L12 242M22 242L51 213M52 222L32 242M42 242L62 222M72 222L52 242M62 242L82 222M92 222L72 242M82 242L102 222M112 222L92 242M102 242L122 222M132 222L112 242M122 242L142 222M152 222L132 242M142 242L162 222M172 222L162 232L157 237L152 242M161 242L181 222M171 242L191 222M52 22L72 2M82 2L62 22M72 22L92 2M102 2L82 22M92 22L112 2M122 2L102 22M112 22L132 2M142 2L122 22M132 22L152 2M161.5 2.5L142 22M152 22L159.25 14.75L166.5 7.5M171 22L176 17M171.5 12.5L162 22M180 22L180.5 21.5" stroke="black" stroke-width="3"/>
</svg>
